<svg width="16" height="16" viewBox="0 0 16 16" fill="none" xmlns="http://www.w3.org/2000/svg">
<g clip-path="url(#clip0_0_286)">
<path fill-rule="evenodd" clip-rule="evenodd" d="M13.0267 0C13.9307 0 14.6667 0.736 14.6667 1.648V16L12.9467 14.48L11.9787 13.584L10.9547 12.632L11.3787 14.112H2.30666C1.40266 14.112 0.666656 13.376 0.666656 12.464V1.648C0.666656 0.736 1.40266 0 2.30666 0H13.0267V0ZM9.93866 10.448C11.7067 10.392 12.3867 9.232 12.3867 9.232C12.3867 6.656 11.2347 4.568 11.2347 4.568C10.0827 3.704 8.98666 3.728 8.98666 3.728L8.87466 3.856C10.2347 4.272 10.8667 4.872 10.8667 4.872C10.0347 4.416 9.21866 4.192 8.45866 4.104C7.88266 4.04 7.33066 4.056 6.84266 4.12L6.70666 4.136C6.42666 4.16 5.74666 4.264 4.89066 4.64C4.59466 4.776 4.41866 4.872 4.41866 4.872C4.41866 4.872 5.08266 4.24 6.52266 3.824L6.44266 3.728C6.44266 3.728 5.34666 3.704 4.19466 4.568C4.19466 4.568 3.04266 6.656 3.04266 9.232C3.04266 9.232 3.71466 10.392 5.48266 10.448C5.48266 10.448 5.77866 10.088 6.01866 9.784C5.00266 9.48 4.61866 8.84 4.61866 8.84L4.84266 8.976L4.87466 9L4.90599 9.018L4.91532 9.022L4.94666 9.04C5.14666 9.152 5.34666 9.24 5.53066 9.312C5.85866 9.44 6.25066 9.568 6.70666 9.656C7.30666 9.768 8.01066 9.808 8.77866 9.664C9.15466 9.6 9.53866 9.488 9.93866 9.32C10.2187 9.216 10.5307 9.064 10.8587 8.848C10.8587 8.848 10.4587 9.504 9.41066 9.8C9.65066 10.104 9.93866 10.448 9.93866 10.448ZM6.21866 6.712C5.76266 6.712 5.40266 7.112 5.40266 7.6C5.40266 8.088 5.77066 8.488 6.21866 8.488C6.67466 8.488 7.03466 8.088 7.03466 7.6C7.04266 7.112 6.67466 6.712 6.21866 6.712ZM9.13866 6.712C8.68266 6.712 8.32266 7.112 8.32266 7.6C8.32266 8.088 8.69066 8.488 9.13866 8.488C9.59466 8.488 9.95466 8.088 9.95466 7.6C9.95466 7.112 9.59466 6.712 9.13866 6.712Z" fill="url(#paint0_linear_0_286)"/>
</g>
<defs>
<linearGradient id="paint0_linear_0_286" x1="13.0409" y1="8.71431" x2="3.60634" y2="8.72948" gradientUnits="userSpaceOnUse">
<stop stop-color="#C319C6"/>
<stop offset="1" stop-color="#C9184A"/>
</linearGradient>
<clipPath id="clip0_0_286">
<rect width="16" height="16" fill="white"/>
</clipPath>
</defs>
</svg>
