<svg width="149" height="19" viewBox="0 0 149 19" fill="none" xmlns="http://www.w3.org/2000/svg">
<g clip-path="url(#clip0_0_100)">
<path d="M43.9349 7.7H33.0735V4.1H46.7469V0.5H33.0485C32.0971 0.5 31.1846 0.87665 30.5119 1.54709C29.8393 2.21754 29.4614 3.12686 29.4614 4.07501V7.72499C29.4614 8.67314 29.8393 9.58246 30.5119 10.2529C31.1846 10.9233 32.0971 11.3 33.0485 11.3H43.9099V14.9H29.7197V18.5H43.9349C44.8863 18.5 45.7987 18.1234 46.4713 17.4529C47.144 16.7825 47.522 15.8731 47.522 14.925V11.275C47.522 10.3269 47.144 9.41754 46.4713 8.74709C45.7987 8.07665 44.8863 7.7 43.9349 7.7Z" fill="white"/>
<path d="M64.9679 0.5H54.0665C53.5954 0.5 53.1292 0.592488 52.6941 0.772179C52.2591 0.951871 51.8639 1.21524 51.5309 1.54725C51.1981 1.87925 50.9341 2.27337 50.7541 2.7071C50.574 3.14083 50.4817 3.60564 50.4818 4.07501V14.925C50.4817 15.3944 50.574 15.8592 50.7541 16.2929C50.9341 16.7266 51.1981 17.1208 51.5309 17.4528C51.8639 17.7848 52.2591 18.0481 52.6941 18.2278C53.1292 18.4075 53.5954 18.5 54.0665 18.5H64.9679C65.9193 18.5 66.8318 18.1234 67.5045 17.4529C68.1771 16.7825 68.555 15.8731 68.555 14.925V4.07501C68.555 3.12686 68.1771 2.21754 67.5045 1.54709C66.8318 0.87665 65.9193 0.5 64.9679 0.5ZM64.9429 14.9H54.1066V4.1H64.9429V14.9Z" fill="white"/>
<path d="M103.121 0.500001H92.4905C91.5391 0.500001 90.6266 0.876652 89.9541 1.54709C89.2813 2.21754 88.9034 3.12686 88.9034 4.07501V18.5H92.5155V12.585H103.096V18.5H106.708V4.07501C106.708 3.60543 106.616 3.14041 106.436 2.70652C106.256 2.27263 105.991 1.87839 105.658 1.54636C105.325 1.21433 104.929 0.951007 104.494 0.771463C104.059 0.591918 103.592 0.499672 103.121 0.500001ZM103.096 8.98499H92.5155V4.1H103.096V8.98499Z" fill="white"/>
<path d="M145.413 0.500008H134.785C134.313 0.499022 133.846 0.590764 133.41 0.769983C132.974 0.949201 132.577 1.21238 132.244 1.54445C131.91 1.87651 131.645 2.27095 131.464 2.70519C131.283 3.1394 131.19 3.60491 131.19 4.07501V18.5H134.802V12.585H145.388V18.5H149V4.07501C149 3.12686 148.622 2.21754 147.949 1.5471C147.277 0.876659 146.364 0.500008 145.413 0.500008ZM145.388 8.98501H134.81V4.1H145.388V8.98501Z" fill="white"/>
<path d="M124.37 14.9H122.925L117.748 2C117.571 1.55739 117.264 1.17788 116.869 0.910484C116.473 0.643091 116.006 0.500106 115.528 0.5H112.312C111.678 0.5 111.07 0.751012 110.622 1.19782C110.173 1.64462 109.921 2.25062 109.921 2.88251V18.5H113.533V4.1H114.978L120.153 17C120.33 17.4426 120.635 17.8222 121.031 18.0897C121.426 18.3571 121.893 18.5001 122.371 18.5H125.586C126.22 18.5 126.829 18.249 127.277 17.8022C127.725 17.3554 127.977 16.7494 127.977 16.1175V0.5H124.365L124.37 14.9Z" fill="white"/>
<path d="M75.3679 0.5H71.7557V14.925C71.7557 15.8731 72.1337 16.7825 72.8064 17.4529C73.4792 18.1234 74.3915 18.5 75.3428 18.5H86.2042V14.9H75.3679V0.5Z" fill="white"/>
<path fill-rule="evenodd" clip-rule="evenodd" d="M3.82283 14.225C3.88697 14.1558 3.96446 14.1002 4.05066 14.0615C4.13686 14.0229 4.23001 14.0019 4.32452 14H20.0874C20.1541 14.0009 20.219 14.0211 20.2745 14.0579C20.33 14.0948 20.3737 14.1469 20.4002 14.2079C20.4267 14.2689 20.435 14.3362 20.4239 14.4018C20.413 14.4674 20.3833 14.5284 20.3383 14.5775L16.997 18.275C16.9329 18.3442 16.8554 18.3998 16.7692 18.4385C16.683 18.4772 16.5899 18.4981 16.4954 18.5H0.722432C0.65574 18.4991 0.590737 18.4789 0.535244 18.4421C0.479752 18.4052 0.436134 18.3531 0.409636 18.2921C0.383138 18.2311 0.374888 18.1638 0.385879 18.0982C0.396869 18.0326 0.426634 17.9716 0.471591 17.9225L3.82283 14.225ZM20.3534 11.16C20.3983 11.2091 20.4281 11.2701 20.439 11.3357C20.4501 11.4012 20.4418 11.4686 20.4153 11.5296C20.3887 11.5906 20.3451 11.6427 20.2896 11.6796C20.2341 11.7164 20.1692 11.7366 20.1024 11.7375L4.33455 11.75C4.24005 11.7481 4.14689 11.7272 4.06069 11.6885C3.97449 11.6498 3.89699 11.5942 3.83288 11.525L0.466574 7.84001C0.421618 7.7909 0.391854 7.72989 0.380861 7.66432C0.369871 7.59875 0.37812 7.53142 0.404618 7.47041C0.431117 7.40939 0.474735 7.35733 0.530228 7.32044C0.585719 7.28356 0.650722 7.26344 0.717417 7.26251L16.4853 7.25C16.5798 7.25193 16.673 7.27284 16.7592 7.3115C16.8454 7.35016 16.9229 7.40578 16.987 7.475L20.3534 11.16ZM3.82283 0.725C3.88697 0.655778 3.96446 0.600171 4.05066 0.561509C4.13686 0.522847 4.23001 0.501926 4.32452 0.5L20.0975 0.5125C20.1641 0.513436 20.2292 0.533556 20.2847 0.57044C20.3402 0.607324 20.3838 0.659401 20.4102 0.720406C20.4367 0.781413 20.445 0.84875 20.4341 0.914317C20.423 0.979886 20.3933 1.04089 20.3483 1.09L16.997 4.775C16.9329 4.84422 16.8554 4.89984 16.7692 4.9385C16.683 4.97716 16.5899 4.99807 16.4954 5H0.722432C0.65574 4.99906 0.590737 4.97894 0.535244 4.94206C0.479752 4.90518 0.436134 4.85309 0.409636 4.7921C0.383138 4.73109 0.374888 4.66376 0.385879 4.59819C0.396869 4.53262 0.426634 4.47161 0.471591 4.4225L3.82283 0.725Z" fill="white"/>
</g>
<defs>
<clipPath id="clip0_0_100">
<rect width="149" height="18" fill="white" transform="translate(0 0.5)"/>
</clipPath>
</defs>
</svg>
